# xmcd CD database file
#
# Track frame offsets:
#	150
#	14005
#	30515
#	43655
#	57457
#	69672
#	86310
#	100047
#	116195
#	129885
#	140862
#	154975
#	172287
#	189150
#
# Disc length: 2670 seconds
#
# Revision: 1
# Processed by: cddbd v1.5.2PL0 Copyright (c) Steve Scherf et al.
# Submitted via: CDex 1.51
#
DISCID=c50a6c0e
DTITLE=Ovidio González - Mi Propuesta  {bolero ~ Cuba}
DYEAR=2004
DGENRE=Bolero
TTITLE0=Cuando ya no mé quiras
TTITLE1=Mosaico
TTITLE2=Si en un final
TTITLE3=Le dije a una rosa
TTITLE4=Sombras
TTITLE5=Mis sentimientos
TTITLE6=Amorosa guajira
TTITLE7=Noche de tragos
TTITLE8=Que me lleve el diablo
TTITLE9=Ojos malignos
TTITLE10=Encadenados
TTITLE11=Un bolero
TTITLE12=Mosaico
TTITLE13=Tú eres todo
EXTD=YEAR: 2004
EXTT0=
EXTT1=
EXTT2=
EXTT3=
EXTT4=
EXTT5=
EXTT6=
EXTT7=
EXTT8=
EXTT9=
EXTT10=
EXTT11=
EXTT12=
EXTT13=
PLAYORDER=
